 <svg  version="1.0" xmlns="http://www.w3.org/2000/svg"  width="300.000000pt" height="85.000000pt" viewBox="0 0 300.000000 85.000000"  preserveAspectRatio="xMidYMid meet">  <g transform="translate(0.000000,85.000000) scale(0.100000,-0.100000)" fill="#3f73ee" stroke="none"> <path d="M262 730 c-126 -101 -155 -120 -184 -120 -45 0 -70 -27 -70 -76 0 -45 29 -74 72 -74 15 0 33 -7 40 -15 11 -13 16 -12 42 6 28 20 28 22 10 35 -15 10 -18 20 -13 47 5 29 25 50 131 136 69 56 130 100 136 99 13 -4 303 -231 302 -238 0 -3 -69 -60 -153 -127 -130 -102 -156 -119 -166 -106 -7 8 -14 26 -15 41 -4 33 -47 72 -80 72 -50 0 -87 -63 -68 -115 9 -22 61 -47 85 -40 13 4 30 -2 50 -19 17 -14 36 -26 42 -26 7 0 46 28 87 61 141 116 136 113 162 95 13 -10 22 -26 23 -43 0 -24 -20 -44 -132 -136 -72 -59 -135 -107 -139 -107 -11 0 -303 234 -301 242 1 3 70 60 152 126 135 108 152 119 166 106 10 -9 15 -24 12 -35 -7 -25 21 -67 53 -79 28 -11 71 2 90 28 36 47 -5 122 -66 122 -18 0 -45 11 -64 25 -18 14 -38 25 -43 25 -6 0 -84 -59 -174 -131 -211 -169 -221 -178 -217 -192 3 -7 67 -63 144 -125 235 -191 240 -195 261 -184 10 6 82 61 161 124 122 98 147 114 172 110 34 -5 80 34 80 67 0 51 -55 103 -93 88 -7 -3 -23 2 -35 12 -22 16 -22 16 33 58 32 25 55 51 55 62 0 12 -49 58 -142 133 -183 147 -238 188 -247 188 -5 0 -76 -54 -159 -120z m211 58 c23 -18 44 -35 47 -38 3 -3 44 -37 93 -74 48 -38 87 -74 87 -80 0 -6 -5 -4 -10 4 -5 8 -10 11 -10 6 0 -5 -8 1 -19 12 -10 12 -24 22 -30 22 -6 0 -14 7 -17 15 -4 8 -10 12 -15 9 -5 -3 -9 2 -9 11 0 9 -4 14 -9 11 -5 -3 -24 9 -42 27 -30 28 -67 56 -105 80 -6 4 -30 -7 -54 -24 -23 -17 -45 -28 -48 -24 -4 4 1 11 12 17 10 5 27 21 39 34 27 32 40 30 90 -8z m-153 -57 c0 -5 -17 -21 -37 -37 -21 -15 -40 -31 -43 -34 -19 -23 -98 -79 -103 -73 -9 8 12 33 27 33 10 0 100 74 130 107 13 15 26 17 26 4z m138 -144 c10 -9 22 -15 25 -12 4 3 3 -1 -3 -7 -8 -9 -13 -9 -22 0 -7 7 -20 12 -31 12 -18 0 -100 -52 -122 -76 -5 -7 -48 -43 -95 -80 -98 -79 -110 -90 -110 -101 0 -14 55 -66 136 -128 43 -33 87 -69 99 -80 27 -28 71 -55 88 -55 8 0 26 10 41 21 40 32 45 13 5 -21 -19 -16 -37 -29 -41 -30 -13 0 -108 71 -108 81 0 5 -7 9 -16 9 -8 0 -12 4 -9 10 3 5 1 10 -4 10 -6 0 -20 9 -31 20 -11 11 -20 18 -20 15 0 -5 -59 40 -115 87 -11 9 -31 26 -45 37 -24 19 -25 19 -6 40 11 12 24 21 30 21 6 0 22 14 36 30 14 17 28 30 33 30 9 0 27 14 68 53 15 15 33 27 39 27 5 0 10 4 10 9 0 4 19 21 42 37 23 16 50 37 59 46 21 20 41 18 67 -5z m305 -30 c24 -9 21 -39 -4 -57 -12 -8 -34 -28 -50 -45 l-28 -30 25 -26 c14 -15 21 -29 16 -33 -5 -3 -17 3 -27 14 -10 11 -27 20 -39 20 -24 0 -92 -45 -124 -82 -13 -16 -29 -28 -35 -28 -7 0 -23 -12 -36 -25 -23 -24 -61 -34 -61 -16 0 5 -10 13 -21 16 -16 5 -18 9 -9 15 8 5 22 2 34 -6 24 -15 44 -5 116 55 148 124 219 179 224 174 13 -13 -5 41 -19 57 -8 9 -15 23 -15 30 0 8 6 6 18 -7 9 -11 25 -22 35 -26z m-643 3 c27 -50 -32 -92 -73 -52 -18 18 -19 25 -9 47 15 32 66 35 82 5z m444 -16 c23 -23 20 -51 -8 -69 -46 -31 -97 25 -60 66 21 23 47 24 68 3z m-209 -188 c19 -29 8 -61 -26 -71 -44 -14 -81 61 -41 84 28 17 51 12 67 -13z m453 -8 c17 -17 15 -38 -5 -60 -21 -24 -45 -23 -68 2 -15 17 -16 24 -7 45 13 27 58 35 80 13z m-139 -128 c-30 -27 -62 -52 -71 -55 -10 -4 -18 -11 -18 -16 0 -5 -11 -14 -25 -19 -14 -5 -25 -14 -25 -20 0 -5 -5 -10 -10 -10 -7 0 -7 6 0 20 6 11 16 20 21 20 6 0 20 11 31 25 11 14 24 25 29 25 9 0 51 33 78 62 9 9 22 17 30 17 8 1 -10 -21 -40 -49z"/> <path d="M980 700 c0 -17 7 -20 45 -20 l45 0 0 -90 c0 -83 1 -90 20 -90 19 0 20 7 20 90 l0 90 45 0 c38 0 45 3 45 20 0 19 -7 20 -110 20 -103 0 -110 -1 -110 -20z"/> <path d="M1237 713 c-4 -3 -7 -45 -7 -93 0 -113 7 -120 118 -120 76 0 82 1 82 21 0 20 -5 21 -77 18 l-78 -4 -3 73 -3 72 81 0 c73 0 80 2 80 20 0 19 -7 20 -93 20 -52 0 -97 -3 -100 -7z"/> <path d="M1490 700 c-16 -16 -20 -33 -20 -93 0 -99 9 -107 118 -107 77 0 82 1 82 21 0 20 -4 21 -77 18 l-78 -4 -3 73 -3 72 81 0 c73 0 80 2 80 20 0 18 -7 20 -80 20 -67 0 -83 -3 -100 -20z"/> <path d="M1713 610 c-1 -101 1 -110 18 -110 16 0 19 8 19 45 l0 45 75 0 75 0 0 -45 c0 -38 3 -45 20 -45 19 0 20 7 20 110 0 103 -1 110 -20 110 -17 0 -20 -7 -20 -45 l0 -45 -75 0 -75 0 0 45 c0 37 -3 45 -19 45 -17 0 -18 -9 -18 -110z"/> <path d="M1990 610 c0 -98 2 -110 18 -110 15 0 17 9 14 67 -2 38 0 64 4 60 5 -4 24 -36 44 -69 19 -34 40 -61 45 -61 6 0 24 24 42 54 18 30 37 61 42 69 7 11 10 -5 10 -52 1 -60 3 -68 20 -68 18 0 19 8 18 107 -2 142 -15 146 -82 27 l-48 -86 -50 86 c-27 47 -56 86 -63 86 -11 0 -14 -24 -14 -110z m230 50 c0 -5 -5 -10 -11 -10 -5 0 -7 5 -4 10 3 6 8 10 11 10 2 0 4 -4 4 -10z"/> <path d="M2348 704 c-41 -21 -58 -63 -58 -139 0 -58 2 -65 20 -65 15 0 20 7 20 25 0 24 2 25 75 25 73 0 75 -1 75 -25 0 -16 6 -25 15 -25 12 0 15 19 15 110 l0 110 -67 0 c-41 -1 -79 -7 -95 -16z m132 -69 l0 -45 -75 0 c-73 0 -75 1 -75 25 0 43 33 65 95 65 l55 0 0 -45z"/> <path d="M2550 700 c0 -17 7 -20 45 -20 l45 0 0 -90 c0 -79 2 -90 18 -90 15 0 17 10 14 90 l-3 90 48 0 c42 0 49 3 49 20 0 19 -7 20 -108 20 -101 0 -108 -1 -108 -20z"/> <path d="M2800 622 c0 -63 4 -102 12 -110 8 -8 45 -12 101 -12 79 0 88 2 85 18 -3 14 -15 17 -73 19 -39 0 -76 2 -82 2 -9 1 -13 22 -13 71 l0 70 85 0 c78 0 85 2 85 20 0 19 -7 20 -100 20 l-100 0 0 -98z"/> <path d="M1290 610 c0 -18 7 -20 63 -20 56 0 63 2 64 20 2 18 -4 20 -63 20 -57 0 -64 -2 -64 -20z"/> <path d="M2850 610 c0 -18 7 -20 65 -20 58 0 65 2 65 20 0 18 -7 20 -65 20 -58 0 -65 -2 -65 -20z"/> <path d="M1098 353 l-98 -4 0 -94 c0 -118 7 -125 122 -125 71 0 78 2 78 20 0 18 -7 20 -80 20 l-80 0 0 75 0 75 80 0 c73 0 80 2 80 20 0 11 -1 19 -2 18 -2 -1 -47 -4 -100 -5z"/> <path d="M1500 290 c0 -120 47 -165 165 -158 l50 3 3 111 c2 94 0 111 -13 111 -12 0 -15 -17 -15 -94 l0 -93 -49 0 c-34 0 -56 6 -75 21 -24 19 -26 27 -26 93 0 65 -2 72 -20 72 -18 0 -20 -7 -20 -66z"/> <path d="M2510 354 c0 -15 112 -224 120 -224 8 0 120 209 120 223 0 1 -9 3 -19 3 -14 0 -29 -22 -57 -78 -21 -43 -41 -78 -44 -78 -3 0 -22 33 -42 74 -24 48 -44 75 -57 79 -12 3 -21 3 -21 1z"/> <path d="M2878 353 l-98 -4 0 -94 c0 -118 7 -125 122 -125 71 0 78 2 78 20 0 18 -7 20 -80 20 l-80 0 0 75 0 75 80 0 c73 0 80 2 80 20 0 11 -1 19 -2 18 -2 -1 -47 -4 -100 -5z"/> <path d="M1242 243 l3 -108 83 0 c79 0 85 1 108 28 35 41 34 127 -1 162 -22 23 -32 25 -110 25 l-86 0 3 -107z m168 57 c12 -12 20 -33 20 -55 0 -53 -28 -75 -95 -75 l-55 0 0 75 0 75 55 0 c42 0 60 -5 75 -20z"/> <path d="M1786 334 c-19 -18 -21 -75 -4 -92 7 -7 40 -12 78 -12 73 0 94 -9 88 -36 -3 -17 -14 -19 -91 -22 -79 -3 -87 -5 -87 -22 0 -18 7 -20 85 -20 78 0 88 2 110 25 30 29 32 58 5 85 -16 16 -33 20 -84 20 -71 0 -99 17 -76 45 9 11 33 15 86 15 59 0 74 3 74 15 0 22 -162 22 -184 -1z"/> <path d="M2024 335 c-11 -27 1 -174 14 -187 9 -9 42 -13 100 -13 71 0 87 3 87 15 0 12 -18 16 -80 20 l-80 5 -3 73 -3 72 84 0 c68 0 84 3 84 15 0 22 -195 22 -203 0z"/> <path d="M2270 239 c0 -97 2 -110 16 -107 14 3 17 17 15 96 l-2 92 75 0 76 0 0 -30 c0 -36 -23 -50 -84 -50 -34 0 -46 -4 -46 -15 0 -8 7 -15 16 -15 9 0 36 -18 60 -40 32 -29 52 -40 75 -40 l31 0 -40 33 c-48 38 -50 43 -19 51 40 10 64 95 35 124 -8 8 -47 12 -110 12 l-98 0 0 -111z"/> <path d="M1060 243 c0 -15 10 -18 60 -18 50 0 60 3 60 18 0 14 -10 17 -60 17 -50 0 -60 -3 -60 -17z"/> <path d="M2080 243 c0 -16 8 -18 65 -15 48 3 65 7 65 18 0 11 -16 14 -65 14 -55 0 -65 -3 -65 -17z"/> <path d="M2840 243 c0 -15 10 -18 60 -18 50 0 60 3 60 18 0 14 -10 17 -60 17 -50 0 -60 -3 -60 -17z"/> </g> </svg> 